<?xml version="1.0" encoding="UTF-8"?>
<svg version="1.1" xmlns="http://www.w3.org/2000/svg" width="123" height="110">
<defs>
  <!-- Primary gradient for main logo -->
  <linearGradient id="primaryGradient" x1="0%" y1="0%" x2="100%" y2="100%">
    <stop offset="0%" style="stop-color:#0ea5e9;stop-opacity:1" />
    <stop offset="50%" style="stop-color:#3b82f6;stop-opacity:1" />
    <stop offset="100%" style="stop-color:#1d4ed8;stop-opacity:1" />
  </linearGradient>
  
  <!-- Secondary gradient for accents -->
  <linearGradient id="accentGradient" x1="0%" y1="0%" x2="100%" y2="100%">
    <stop offset="0%" style="stop-color:#06b6d4;stop-opacity:1" />
    <stop offset="100%" style="stop-color:#0891b2;stop-opacity:1" />
  </linearGradient>
  
  <!-- Tech gradient for modern look -->
  <linearGradient id="techGradient" x1="0%" y1="0%" x2="100%" y2="100%">
    <stop offset="0%" style="stop-color:#8b5cf6;stop-opacity:1" />
    <stop offset="50%" style="stop-color:#3b82f6;stop-opacity:1" />
    <stop offset="100%" style="stop-color:#06b6d4;stop-opacity:1" />
  </linearGradient>
</defs>
<path d="M0 0 C1.09787842 -0.0038269 2.19575684 -0.00765381 3.3269043 -0.01159668 C5.65365514 -0.01431928 7.9804364 -0.00693389 10.30712891 0.00976562 C13.83437293 0.03100536 17.35954161 0.01005953 20.88671875 -0.015625 C23.15365027 -0.01297859 25.42058052 -0.00784716 27.6875 0 C28.7285791 -0.00809692 29.7696582 -0.01619385 30.84228516 -0.02453613 C43.19999057 0.13015759 52.77790688 3.90927609 61.7421875 12.2734375 C69.10203844 19.88598718 72.3345913 28.61556337 72.4375 39.09375 C72.23096376 50.84423298 68.35708076 59.65829 60.3203125 68.1796875 C51.77221667 76.23698357 41.44453004 78.73791559 30 78.59375 C29.31164063 78.58923828 28.62328125 78.58472656 27.9140625 78.58007812 C26.23433665 78.56841336 24.55465625 78.55048271 22.875 78.53125 C22.875 80.18125 22.875 81.83125 22.875 83.53125 C39.25770959 83.04346912 52.72229075 81.88107782 65.5625 70.53125 C73.61303468 61.83362743 76.62525643 51.22307449 78.26953125 39.83203125 C78.875 36.53125 78.875 36.53125 80.875 33.53125 C83.6875 32.53125 83.6875 32.53125 86.875 32.53125 C89.75 34.46875 89.75 34.46875 91.875 37.53125 C92.81513934 52.38545154 87.16458534 66.64015447 77.5625 77.78125 C68.09874609 87.75058008 56.33327619 95.86746735 42.17358398 96.68774414 C39.23802667 96.72714261 36.31035329 96.70632821 33.375 96.65625 C31.85519531 96.64271484 31.85519531 96.64271484 30.3046875 96.62890625 C27.82787199 96.60554007 25.35156621 96.57278168 22.875 96.53125 C22.92720703 97.54445312 22.92720703 97.54445312 22.98046875 98.578125 C23.00753906 99.47015625 23.03460938 100.3621875 23.0625 101.28125 C23.09730469 102.16296875 23.13210937 103.0446875 23.16796875 103.953125 C22.80489427 107.14818039 22.2878786 108.3902839 19.875 110.53125 C16.75219727 111.04882812 16.75219727 111.04882812 12.94140625 111.0625 C12.26706039 111.0663269 11.59271454 111.07015381 10.89793396 111.07409668 C9.47320054 111.07681566 8.04841719 111.0694551 6.6237793 111.05273438 C4.44791688 111.03135237 2.27536804 111.05251335 0.09960938 111.078125 C-1.2864656 111.07548106 -2.67253851 111.0703547 -4.05859375 111.0625 C-5.31728271 111.05798828 -6.57597168 111.05347656 -7.87280273 111.04882812 C-11.125 110.53125 -11.125 110.53125 -13.54223633 108.90527344 C-15.63250395 105.77003322 -15.58382252 103.76648887 -15.515625 100.015625 C-15.50273437 98.76523438 -15.48984375 97.51484375 -15.4765625 96.2265625 C-15.44304688 94.92460938 -15.40953125 93.62265625 -15.375 92.28125 C-15.35695313 90.96382813 -15.33890625 89.64640625 -15.3203125 88.2890625 C-15.27316271 85.03572692 -15.20736044 81.78385375 -15.125 78.53125 C-16.35476562 78.58345703 -16.35476562 78.58345703 -17.609375 78.63671875 C-18.68703125 78.66378906 -19.7646875 78.69085938 -20.875 78.71875 C-22.47601562 78.77095703 -22.47601562 78.77095703 -24.109375 78.82421875 C-27.54218719 78.49072016 -28.8667337 78.13859433 -31.125 75.53125 C-31.64257812 72.57617188 -31.64257812 72.57617188 -31.65625 69 C-31.66140625 67.71480469 -31.6665625 66.42960937 -31.671875 65.10546875 C-31.66349609 64.43692871 -31.65511719 63.76838867 -31.64648438 63.07958984 C-31.62506585 61.03752819 -31.64628292 58.99898362 -31.671875 56.95703125 C-31.66671875 55.67183594 -31.6615625 54.38664062 -31.65625 53.0625 C-31.65173828 51.88236328 -31.64722656 50.70222656 -31.64257812 49.48632812 C-31.125 46.53125 -31.125 46.53125 -29.48242188 44.63476562 C-26.45607804 43.2181258 -24.20324823 43.23522017 -20.875 43.34375 C-19.25851563 43.38435547 -19.25851563 43.38435547 -17.609375 43.42578125 C-16.78953125 43.46058594 -15.9696875 43.49539062 -15.125 43.53125 C-15.14594727 42.37077148 -15.16689453 41.21029297 -15.18847656 40.01464844 C-15.26091807 35.70601762 -15.30681471 31.39744055 -15.34472656 27.08837891 C-15.36483261 25.22402899 -15.3921218 23.35974206 -15.42675781 21.49560547 C-15.47532121 18.81462052 -15.49797838 16.13446977 -15.515625 13.453125 C-15.53627014 12.62069275 -15.55691528 11.7882605 -15.57818604 10.93060303 C-15.57953723 7.43992186 -15.43766755 5.12511159 -13.79589844 2.00683594 C-9.39949267 -0.4220376 -4.93775763 -0.03781488 0 0 Z M-2.125 13.53125 C-2.125 23.43125 -2.125 33.33125 -2.125 43.53125 C9.425 43.53125 20.975 43.53125 32.875 43.53125 C33.535 41.88125 34.195 40.23125 34.875 38.53125 C34.215 37.54125 33.555 36.55125 32.875 35.53125 C30.35603926 35.11446393 30.35603926 35.11446393 27.4296875 35.23828125 C25.81513672 35.2527832 25.81513672 35.2527832 24.16796875 35.26757812 C23.04003906 35.29271484 21.91210938 35.31785156 20.75 35.34375 C19.61433594 35.35728516 18.47867188 35.37082031 17.30859375 35.38476562 C14.49719515 35.42020342 11.68603925 35.47401164 8.875 35.53125 C8.875 31.24125 8.875 26.95125 8.875 22.53125 C13.39779308 22.56430696 17.91569703 22.63157733 22.4375 22.71875 C24.35272461 22.72745117 24.35272461 22.72745117 26.30664062 22.73632812 C33.78806081 22.91121847 38.4217127 23.20332563 43.875 28.53125 C46.69971464 33.36060084 47.80392934 37.989342 46.875 43.53125 C45.23906028 48.87726732 43.15561237 51.89446888 38.1502533 54.66607666 C33.42377207 56.46333833 28.37343832 56.1352659 23.37890625 56.140625 C21.59588356 56.16542938 21.59588356 56.16542938 19.77684021 56.19073486 C15.9970072 56.23914506 12.21757637 56.26057151 8.4375 56.28125 C5.86781839 56.30941533 3.29815545 56.33934354 0.72851562 56.37109375 C-5.55591675 56.4449025 -11.84023633 56.49658601 -18.125 56.53125 C-18.125 59.50125 -18.125 62.47125 -18.125 65.53125 C-10.61774257 65.60768488 -3.11058654 65.66001094 4.39697266 65.69604492 C6.94779206 65.71107636 9.49858585 65.73150705 12.04931641 65.75756836 C15.72825463 65.79419972 19.40684935 65.81103346 23.0859375 65.82421875 C24.21550873 65.83970261 25.34507996 65.85518646 26.50888062 65.87113953 C37.0424524 65.87334881 45.26545721 64.24518546 52.95703125 56.7578125 C58.20287064 50.66793786 59.63071464 44.49267608 59.31640625 36.5234375 C58.15257788 28.6341231 54.14460872 23.13621961 48.23046875 18.00390625 C41.70167549 13.92205707 35.85645358 13.09874535 28.34375 13.23828125 C27.46722778 13.24252609 26.59070557 13.24677094 25.68762207 13.25114441 C22.91642177 13.2677987 20.14597664 13.30542491 17.375 13.34375 C15.48438558 13.35881401 13.59375964 13.3724994 11.703125 13.38476562 C7.09323232 13.41509387 2.48495107 13.47383825 -2.125 13.53125 Z M-2.125 78.53125 C-2.125 84.80125 -2.125 91.07125 -2.125 97.53125 C1.835 97.53125 5.795 97.53125 9.875 97.53125 C9.875 91.26125 9.875 84.99125 9.875 78.53125 C5.915 78.53125 1.955 78.53125 -2.125 78.53125 Z " fill="url(#primaryGradient)" transform="translate(31.125,-0.53125)"/>
<path d="M0 0 C0.33 0 0.66 0 1 0 C1 4.95 1 9.9 1 15 C-3.29 15 -7.58 15 -12 15 C-12 11.37 -12 7.74 -12 4 C-8.04 4 -4.08 4 0 4 C0 2.68 0 1.36 0 0 Z " fill="url(#accentGradient)" transform="translate(28,29)"/>
<path d="M0 0 C2.4375 1.5625 2.4375 1.5625 4 4 C3.9375 7.625 3.9375 7.625 3 11 C0 13 0 13 -3.5625 12.75 C-7 12 -7 12 -9 10 C-9.55021834 3.94759825 -9.55021834 3.94759825 -7.875 1.0625 C-5.06487736 -0.52990283 -3.17235276 -0.45319325 0 0 Z " fill="url(#techGradient)" transform="translate(118,17)"/>
<path d="M0 0 C4.29 0 8.58 0 13 0 C13 3.3 13 6.6 13 10 C11.07942708 10.22786458 9.15885417 10.45572917 7.23828125 10.68359375 C4.81008489 11.02684664 2.40471494 11.51905701 0 12 C0 8.04 0 4.08 0 0 Z " fill="url(#accentGradient)" transform="translate(16,77)"/>
<path d="M0 0 C4.29 0 8.58 0 13 0 C14.31909709 6.4489191 13.69508823 12.48755792 13 19 C12.67 19 12.34 19 12 19 C11.67 15.04 11.34 11.08 11 7 C9.741875 7.144375 8.48375 7.28875 7.1875 7.4375 C6.12595703 7.55931641 6.12595703 7.55931641 5.04296875 7.68359375 C2.80603607 7.97170735 2.80603607 7.97170735 0 9 C0 6.03 0 3.06 0 0 Z " fill="url(#primaryGradient)" transform="translate(41,77)"/>
<path d="M0 0 C4.29 0 8.58 0 13 0 C13 1.65 13 3.3 13 5 C8.71 5 4.42 5 0 5 C0 3.35 0 1.7 0 0 Z " fill="url(#techGradient)" transform="translate(16,39)"/>
<path d="M0 0 C0 1.98 0 3.96 0 6 C-1.8253125 6.2165625 -1.8253125 6.2165625 -3.6875 6.4375 C-6.82670377 6.82780953 -9.9075134 7.32351856 -13 8 C-13 6.35 -13 4.7 -13 3 C-11.39743892 2.49487756 -9.79288208 1.99608373 -8.1875 1.5 C-7.29417969 1.2215625 -6.40085937 0.943125 -5.48046875 0.65625 C-3 0 -3 0 0 0 Z " fill="url(#accentGradient)" transform="translate(29,81)"/>
<path d="M0 0 C4.29 0 8.58 0 13 0 C13 0.99 13 1.98 13 3 C11.39658445 3.33692785 9.79223445 3.66941093 8.1875 4 C7.29417969 4.185625 6.40085937 4.37125 5.48046875 4.5625 C3 5 3 5 0 5 C0 3.35 0 1.7 0 0 Z " fill="url(#primaryGradient)" transform="translate(41,77)"/>
<path d="M0 0 C0 0.99 0 1.98 0 3 C-4.29 3.66 -8.58 4.32 -13 5 C-13 4.34 -13 3.68 -13 3 C-11.39743892 2.49487756 -9.79288208 1.99608373 -8.1875 1.5 C-7.29417969 1.2215625 -6.40085937 0.943125 -5.48046875 0.65625 C-3 0 -3 0 0 0 Z " fill="url(#techGradient)" transform="translate(29,81)"/>
<path d="M0 0 C3.96 0 7.92 0 12 0 C12 0.33 12 0.66 12 1 C8.04 1.99 4.08 2.98 0 4 C0 2.68 0 1.36 0 0 Z " fill="url(#accentGradient)" transform="translate(16,78)"/>
<path d="M0 0 C3 1 3 1 3 1 Z M0 1 C-3.26545761 2.88391785 -6.28111761 3.49287967 -10 4 C-10 3.34 -10 2.68 -10 2 C-6.78548731 0.39274365 -3.56387464 0.94251815 0 1 Z " fill="url(#primaryGradient)" transform="translate(26,80)"/>
</svg>
